<svg width="1024" height="1024" viewBox="0 0 1024 1024" fill="none" xmlns="http://www.w3.org/2000/svg">
<rect x="-0.00585938" width="1024" height="90" fill="black"/>
<rect x="-0.00585938" width="90" height="320" rx="30" fill="black"/>
<rect x="933.994" width="90" height="634" rx="30" fill="black"/>
<path fill-rule="evenodd" clip-rule="evenodd" d="M512 384.726L933.994 806.72V734C933.994 717.432 947.426 704 963.994 704H993.994C1010.56 704 1023.99 717.432 1023.99 734L1024 896.726V1024L933.994 934L448.361 448.365L512 384.726Z" fill="black"/>
<path fill-rule="evenodd" clip-rule="evenodd" d="M0.00195312 420C0.00195312 403.432 13.4336 390 30.002 390H60.002C76.5703 390 90.002 403.432 90.002 420V806.755L377.398 519.359C389.113 507.644 408.109 507.644 419.824 519.359L441.037 540.572C452.754 552.288 452.754 571.283 441.037 582.999L0.0351562 1024H0L0.00195312 896.755V420Z" fill="black"/>
</svg>
